<?xml version="1.0" standalone="no"?><!DOCTYPE svg PUBLIC "-//W3C//DTD SVG 1.1//EN" "http://www.w3.org/Graphics/SVG/1.1/DTD/svg11.dtd"><svg t="1764643346813" class="icon" viewBox="0 0 1024 1024" version="1.1" xmlns="http://www.w3.org/2000/svg" p-id="4729" xmlns:xlink="http://www.w3.org/1999/xlink" width="200" height="200"><path d="M707.061 659.668l0.378 0.371 156.558 156.559V704c0-17.496 14.043-31.713 31.472-31.996l0.529-0.004c17.496 0 31.713 14.042 31.996 31.47l0.004 0.53v189.454c0.003 0.243 0.003 0.486 0 0.73V896c0 17.496-14.042 31.713-31.471 31.996l-0.53 0.004H703.999c-17.673 0-32-14.327-32-32 0-17.496 14.042-31.713 31.471-31.996L704 864h116.89L662.184 705.294c-12.497-12.497-12.497-32.758 0-45.255 12.372-12.372 32.353-12.495 44.877-0.37z m-342.987 0.486c12.31 12.434 12.332 32.416 0.145 44.879l-0.373 0.375L203.643 864h116.356c17.497 0 31.714 14.042 31.996 31.47l0.004 0.53c0 17.496-14.041 31.713-31.47 31.996l-0.53 0.004H128c-17.496 0-31.713-14.042-31.996-31.47L96 896V704c0-17.673 14.327-32 32-32 17.496 0 31.713 14.042 31.996 31.47l0.004 0.53v113.149l158.82-157.224c12.56-12.433 32.82-12.33 45.254 0.229zM96.004 127.527L96 128a32.63 32.63 0 0 1 0.023-1.213l0.008-0.191a31.875 31.875 0 0 1 9.572-21.45l-0.344 0.341a32.626 32.626 0 0 1 1.715-1.612v0.001a31.796 31.796 0 0 1 8.568-5.36 31.836 31.836 0 0 1 10.581-2.462h0.024c0.15-0.01 0.299-0.017 0.448-0.024l0.075-0.002-0.075 0.002c0.16-0.007 0.32-0.012 0.48-0.017l0.183-0.004 0.213-0.005h0.039l0.396-0.004H320c17.673 0 32 14.327 32 32 0 17.496-14.042 31.713-31.471 31.996l-0.53 0.004H205.81l158.036 156.448c12.56 12.433 12.662 32.695 0.228 45.254-12.31 12.434-32.29 12.659-44.875 0.598l-0.38-0.37L160 204.707V320c0 17.496-14.042 31.713-31.47 31.996L128 352c-17.496 0-31.713-14.042-31.996-31.47L96 320V127.941l0.003-0.414zM895.997 96c17.496 0 31.713 14.042 31.996 31.47l0.004 0.53v192c0 17.673-14.327 32-32 32-17.497 0-31.713-14.042-31.996-31.47l-0.004-0.53-0.001-116.889-158.704 158.706c-12.497 12.497-32.758 12.497-45.255 0-12.372-12.372-12.496-32.354-0.371-44.878l0.37-0.377L816.599 160h-112.6c-17.496 0-31.713-14.042-31.995-31.47l-0.005-0.53c0-17.496 14.042-31.713 31.471-31.996L704 96h191.999z" p-id="4730" fill="#0D75C7"></path></svg>